<svg width="53" height="53" viewBox="0 0 53 53" fill="none" xmlns="http://www.w3.org/2000/svg">
<g clip-path="url(#clip0_19_9)">
<path d="M39.8929 10.6435C40.3218 10.6435 40.6693 10.296 40.6693 9.86711V8.82347C40.6693 8.39461 40.3218 8.0471 39.8929 8.0471C39.4641 8.0471 39.1166 8.39461 39.1166 8.82347V9.86711C39.1166 10.2959 39.4642 10.6435 39.8929 10.6435Z" fill="#FFB84D"/>
<path d="M48.3397 17.5374C47.9109 17.5374 47.5634 17.8849 47.5634 18.3138C47.5634 18.7426 47.9109 19.0901 48.3397 19.0901H49.3833C49.8122 19.0901 50.1597 18.7426 50.1597 18.3138C50.1597 17.8849 49.8122 17.5374 49.3833 17.5374H48.3397Z" fill="#FFB84D"/>
<path d="M30.4026 17.5374C29.9737 17.5374 29.6262 17.8849 29.6262 18.3138C29.6262 18.7426 29.9737 19.0901 30.4026 19.0901H31.4462C31.8751 19.0901 32.2226 18.7426 32.2226 18.3138C32.2226 17.8849 31.8751 17.5374 31.4462 17.5374H30.4026Z" fill="#FFB84D"/>
<path d="M43.298 42.3365C41.9192 42.3365 40.7974 43.4583 40.7974 44.837C40.7974 46.2158 41.9192 47.3376 43.298 47.3376C44.6767 47.3376 45.7985 46.2158 45.7985 44.837C45.7985 43.4583 44.6767 42.3365 43.298 42.3365ZM43.298 45.7848C42.7752 45.7848 42.3501 45.3597 42.3501 44.837C42.3501 44.3144 42.7752 43.8893 43.298 43.8893C43.8206 43.8893 44.2458 44.3144 44.2458 44.837C44.2458 45.3597 43.8206 45.7848 43.298 45.7848Z" fill="#FFB84D"/>
<path d="M14.9502 44.837C14.9502 46.2158 16.072 47.3376 17.4508 47.3376C18.8297 47.3376 19.9514 46.2158 19.9514 44.837C19.9514 43.4583 18.8297 42.3365 17.4508 42.3365C16.072 42.3365 14.9502 43.4582 14.9502 44.837ZM18.3986 44.837C18.3986 45.3597 17.9735 45.7848 17.4508 45.7848C16.9282 45.7848 16.5029 45.3597 16.5029 44.837C16.5029 44.3144 16.9282 43.8893 17.4508 43.8893C17.9735 43.8893 18.3986 44.3144 18.3986 44.837Z" fill="#FFB84D"/>
<path d="M22.7218 32.9212C23.5983 32.0681 23.6993 30.5842 22.7037 29.6153L19.4767 26.4741C18.3126 25.3415 16.4438 25.3665 15.3108 26.5304L14.7065 27.1513C14.4074 27.4587 14.4141 27.9502 14.7213 28.2491L17.8319 31.2769L14.7213 34.3047C14.5738 34.4482 14.4893 34.6446 14.4865 34.8504C14.4837 35.0563 14.5629 35.2548 14.7065 35.4024L15.3108 36.0233C16.4475 37.1911 18.3123 37.2132 19.4767 36.0795L22.7218 32.9212ZM16.4235 34.9405L16.3607 34.876L19.4865 31.8333C19.6366 31.6873 19.7214 31.4866 19.7214 31.277C19.7214 31.0675 19.6367 30.8668 19.4865 30.7207L16.3607 27.678L16.4235 27.6135C16.9595 27.0629 17.8432 27.051 18.3937 27.5868L21.6207 30.728C21.9651 31.0632 21.919 31.5356 21.6388 31.8085L18.3937 34.9671C17.8458 35.5003 16.9639 35.4956 16.4235 34.9405Z" fill="#FFB84D"/>
<path d="M39.1166 18.3138C39.1166 18.7426 39.4641 19.0901 39.8929 19.0901H42.5332C42.9621 19.0901 43.3096 18.7426 43.3096 18.3138C43.3096 17.8849 42.9621 17.5374 42.5332 17.5374H40.6693V12.7026C40.6693 12.2738 40.3218 11.9263 39.8929 11.9263C39.4641 11.9263 39.1166 12.2738 39.1166 12.7026V18.3138Z" fill="#FFB84D"/>
<path d="M13.2626 11.6786H26.6307C27.0596 11.6786 27.4071 11.3311 27.4071 10.9023C27.4071 10.4734 27.0596 10.1259 26.6307 10.1259H13.2626C12.8338 10.1259 12.4862 10.4734 12.4862 10.9023C12.4862 11.3311 12.8338 11.6786 13.2626 11.6786Z" fill="#FFB84D"/>
<path d="M10.0221 15.6896H23.8986C24.3273 15.6896 24.6749 15.3421 24.6749 14.9132C24.6749 14.4843 24.3273 14.1368 23.8986 14.1368H10.0221C9.59333 14.1368 9.24573 14.4843 9.24573 14.9132C9.24573 15.3421 9.59333 15.6896 10.0221 15.6896Z" fill="#FFB84D"/>
<path d="M17.9608 17.7137C17.5321 17.7137 17.1844 18.0612 17.1844 18.4901C17.1844 18.9189 17.5321 19.2664 17.9608 19.2664H24.8658C25.2946 19.2664 25.6422 18.9189 25.6422 18.4901C25.6422 18.0612 25.2946 17.7137 24.8658 17.7137H17.9608Z" fill="#FFB84D"/>
<path d="M11.4152 17.7137C10.9864 17.7137 10.6388 18.0612 10.6388 18.4901C10.6388 18.9189 10.9864 19.2664 11.4152 19.2664H14.8614C15.2902 19.2664 15.6378 18.9189 15.6378 18.4901C15.6378 18.0612 15.2902 17.7137 14.8614 17.7137H11.4152Z" fill="#FFB84D"/>
<path d="M0.776367 29.958H3.6158C4.04456 29.958 4.39217 29.6105 4.39217 29.1817C4.39217 28.7528 4.04456 28.4053 3.6158 28.4053H0.776367C0.347605 28.4053 0 28.7528 0 29.1817C0 29.6105 0.347605 29.958 0.776367 29.958Z" fill="#FFB84D"/>
<path d="M2.84668 36.7967H0.776367C0.347605 36.7967 0 37.1442 0 37.5731C0 38.0019 0.347605 38.3494 0.776367 38.3494H2.84668C3.27544 38.3494 3.62305 38.0019 3.62305 37.5731C3.62305 37.1442 3.27544 36.7967 2.84668 36.7967Z" fill="#FFB84D"/>
<path d="M11.9801 30.2223H9.2113C8.78254 30.2223 8.43494 30.5698 8.43494 30.9987C8.43494 31.4276 8.78254 31.7751 9.2113 31.7751H11.9801C12.4089 31.7751 12.7565 31.4276 12.7565 30.9987C12.7565 30.5698 12.4089 30.2223 11.9801 30.2223Z" fill="#FFB84D"/>
<path d="M47.2041 29.1918C50.8012 26.7684 53 22.6845 53 18.3137C53 16.2363 52.5275 14.2485 51.5953 12.4058C51.4018 12.0232 50.9347 11.8699 50.5522 12.0634C50.1696 12.2569 50.0162 12.724 50.2097 13.1065C51.0308 14.7301 51.4473 16.4821 51.4473 18.3137C51.4473 22.2446 49.4293 25.9121 46.1433 28.031L41.6233 23.0849C41.0983 22.5102 40.3506 22.1807 39.5723 22.1807H29.0027C28.5621 20.9418 28.3386 19.6435 28.3386 18.3137C28.3386 11.9426 33.5219 6.75947 39.893 6.75947C43.1978 6.75947 46.3514 8.18012 48.5451 10.6571C48.8291 10.978 49.3198 11.0081 49.641 10.7236C49.962 10.4394 49.9918 9.94869 49.7075 9.62769C48.5669 8.33974 47.197 7.30459 45.6871 6.56V3.93059C45.6871 2.97514 44.9098 2.19785 43.9544 2.19785H35.8316C34.8762 2.19785 34.0989 2.97514 34.0989 3.93059V6.55927C29.77 8.70184 26.7859 13.1654 26.7859 18.3137C26.7859 19.637 26.9818 20.933 27.3674 22.1807H7.56989C6.57956 22.1807 5.76603 22.9463 5.68663 23.9167H2.84668C2.41792 23.9167 2.07031 24.2642 2.07031 24.6931C2.07031 25.1219 2.41792 25.4694 2.84668 25.4694H5.67876V32.9735H0.776367C0.347605 32.9735 0 33.321 0 33.7498C0 34.1787 0.347605 34.5262 0.776367 34.5262H5.67876V36.797C5.25342 36.801 4.90964 37.1467 4.90964 37.573C4.90964 37.9993 5.25331 38.345 5.67876 38.3489V43.8407C5.67876 44.6557 6.34188 45.3188 7.15686 45.3188H9.24571V45.8592H6.82344C6.39468 45.8592 6.04707 46.2067 6.04707 46.6356C6.04707 47.0644 6.39468 47.4119 6.82344 47.4119H10.0221C10.4508 47.4119 10.7984 47.0644 10.7984 46.6356V45.3188H11.5068C11.7532 48.3832 14.324 50.802 17.4508 50.802C18.4826 50.802 19.5012 50.5327 20.3963 50.0234C20.769 49.8113 20.8991 49.3373 20.6871 48.9647C20.4751 48.5919 20.0012 48.462 19.6283 48.6738C18.9669 49.0503 18.2138 49.2492 17.4508 49.2492C15.0178 49.2492 13.0384 47.2699 13.0384 44.8369C13.0384 42.4039 15.0178 40.4245 17.4508 40.4245C19.8837 40.4245 21.8631 42.4039 21.8631 44.8369C21.8631 45.5002 21.7193 46.1382 21.4357 46.7331C21.2511 47.1201 21.4154 47.5835 21.8024 47.7679C22.1895 47.9524 22.6527 47.7882 22.8373 47.4013C23.1519 46.7415 23.3371 46.0426 23.3945 45.3188H37.354C37.6004 48.3832 40.1712 50.802 43.298 50.802C46.4248 50.802 48.9955 48.3832 49.242 45.3188H50.8401C52.0311 45.3188 53 44.3499 53 43.1589V36.6095C53 35.9158 52.7423 35.2518 52.2744 34.7398L47.2041 29.1918ZM35.6516 3.93059C35.6516 3.83132 35.7324 3.75058 35.8316 3.75058H43.9544C44.0537 3.75058 44.1344 3.83132 44.1344 3.93059V5.91458C42.7824 5.45155 41.3509 5.20684 39.893 5.20684C38.4093 5.20684 36.9825 5.45507 35.6515 5.91147V3.93059H35.6516ZM40.4772 24.1325L48.5566 32.9735H42.7652C42.3363 32.9735 41.9888 33.321 41.9888 33.7498C41.9888 34.1787 42.3363 34.5262 42.7652 34.5262H49.9756L51.1282 35.7876C51.5982 36.3018 51.4007 36.8599 51.4473 37.4521H50.8487C50.4199 37.4521 50.0724 37.7996 50.0724 38.2285C50.0724 38.6573 50.4199 39.0048 50.8487 39.0048H51.4473V40.1536H46.9856C45.9699 39.3521 44.6894 38.872 43.2981 38.872C41.9069 38.872 40.6263 39.3521 39.6106 40.1536H31.1516V23.7336H34.5V32.9637C34.5 33.8253 35.2009 34.5263 36.0625 34.5263H39.6614C40.0903 34.5263 40.4378 34.1788 40.4378 33.7499C40.4378 33.3211 40.0903 32.9736 39.6614 32.9736H36.0625C36.0571 32.9736 36.0527 32.9691 36.0527 32.9637V23.7336H39.5725C39.9156 23.7336 40.2455 23.879 40.4772 24.1325ZM37.431 43.7662H31.1514V41.7064H38.2234C37.8391 42.3268 37.5664 43.0228 37.431 43.7662ZM22.5253 41.7064H29.5986V43.7662H23.3176C23.1822 43.0228 22.9096 42.3268 22.5253 41.7064ZM7.2315 41.7064H12.376C11.9918 42.3268 11.7191 43.0228 11.5837 43.7662H7.2315V41.7064ZM13.7631 40.1536H7.2315V38.3495H10.5958C11.0245 38.3495 11.3721 38.002 11.3721 37.5731C11.3721 37.1442 11.0245 36.7967 10.5958 36.7967H7.2315V34.5262H10.5958C11.0245 34.5262 11.3721 34.1787 11.3721 33.7498C11.3721 33.321 11.0245 32.9735 10.5958 32.9735H7.2315V24.072C7.2315 23.8853 7.38325 23.7335 7.56989 23.7335H29.5986V40.1535H21.1383C20.1226 39.352 18.842 38.8719 17.4508 38.8719C16.0595 38.8719 14.7789 39.3521 13.7631 40.1536ZM43.298 49.2495C40.865 49.2495 38.8856 47.2701 38.8856 44.8371C38.8856 42.4041 40.865 40.4247 43.298 40.4247C45.731 40.4247 47.7104 42.4041 47.7104 44.8371C47.7104 47.2701 45.731 49.2495 43.298 49.2495ZM50.84 43.7662H49.1648C49.0294 43.0228 48.7568 42.3268 48.3725 41.7064H51.4473V43.1591C51.4473 43.4939 51.1749 43.7662 50.84 43.7662Z" fill="#FFB84D"/>
</g>
<defs>
<clipPath id="clip0_19_9">
<rect width="53" height="53" fill="white"/>
</clipPath>
</defs>
</svg>
